<svg xmlns="http://www.w3.org/2000/svg" xmlns:xlink="http://www.w3.org/1999/xlink" width="150" zoomAndPan="magnify" viewBox="0 0 113.04 120.96" height="150" preserveAspectRatio="xMidYMid meet" version="1.2"><defs><clipPath id="35aebd9662"><path d="M 31.632812 20.492188 L 108.667969 20.492188 L 108.667969 97.527344 L 31.632812 97.527344 Z M 31.632812 20.492188 "/></clipPath><clipPath id="0ee26545a8"><path d="M 70.148438 20.492188 C 48.875 20.492188 31.632812 37.734375 31.632812 59.007812 C 31.632812 80.28125 48.875 97.527344 70.148438 97.527344 C 91.425781 97.527344 108.667969 80.28125 108.667969 59.007812 C 108.667969 37.734375 91.425781 20.492188 70.148438 20.492188 Z M 70.148438 20.492188 "/></clipPath><clipPath id="bcd4b9c7c8"><path d="M 10 3.464844 L 85 3.464844 L 85 107.582031 L 10 107.582031 Z M 10 3.464844 "/></clipPath></defs><g id="25002752dd"><g clip-rule="nonzero" clip-path="url(#35aebd9662)"><g clip-rule="nonzero" clip-path="url(#0ee26545a8)"><path style=" stroke:none;fill-rule:nonzero;fill:#000000;fill-opacity:1;" d="M 31.632812 20.492188 L 108.667969 20.492188 L 108.667969 97.527344 L 31.632812 97.527344 Z M 31.632812 20.492188 "/></g></g><g clip-rule="nonzero" clip-path="url(#bcd4b9c7c8)"><path style=" stroke:none;fill-rule:nonzero;fill:#353333;fill-opacity:1;" d="M 84.207031 51.65625 C 83.949219 49.386719 83.683594 47.113281 83.214844 44.867188 C 82.867188 43.171875 82.316406 41.519531 81.832031 39.851562 C 81.113281 37.320312 80.371094 34.796875 79.609375 32.273438 C 78.085938 27.433594 76.976562 22.5 75.78125 17.589844 C 75.53125 16.53125 75.289062 15.46875 75.039062 14.410156 C 74.921875 13.917969 74.804688 13.429688 74.675781 12.945312 C 74.675781 12.941406 74.675781 12.9375 74.671875 12.933594 C 74.699219 12.871094 74.714844 12.804688 74.710938 12.734375 C 74.703125 12.359375 74.695312 11.984375 74.6875 11.609375 C 74.660156 10.625 74.640625 9.644531 74.554688 8.667969 C 74.421875 6.949219 73.878906 4.898438 71.765625 4.386719 C 70.621094 4.113281 69.433594 4.03125 68.257812 3.917969 C 66.222656 3.738281 64.179688 3.679688 62.136719 3.683594 C 57.347656 3.683594 52.5625 3.464844 47.777344 3.578125 C 43.066406 3.660156 38.351562 4.09375 33.636719 3.828125 C 30.921875 3.664062 28.191406 3.535156 25.476562 3.816406 C 23.875 3.976562 22.230469 4.140625 20.738281 4.722656 C 20.339844 4.839844 18.289062 5.660156 17.800781 6.515625 C 17.078125 7.777344 16.832031 9.207031 16.511719 10.578125 C 16.351562 11.324219 16.210938 12.070312 16.109375 12.816406 C 16.058594 13.257812 15.980469 13.703125 16.105469 14.136719 C 16.355469 14.796875 16.839844 15.359375 17.226562 15.957031 C 17.394531 16.171875 17.511719 16.429688 17.699219 16.628906 C 17.644531 17.421875 17.574219 18.171875 17.453125 18.824219 C 17.109375 20.773438 16.382812 22.644531 15.585938 24.480469 C 14.925781 26.007812 13.136719 30.945312 11.589844 35.964844 C 11.144531 37.402344 10.59375 38.828125 10.402344 40.316406 C 10.03125 43.707031 10.007812 47.121094 10.011719 50.523438 C 10.035156 53.988281 10.058594 57.449219 10.140625 60.914062 C 10.269531 65.585938 10.3125 70.265625 10.503906 74.9375 C 10.644531 78.46875 10.972656 81.992188 11.070312 85.527344 C 11.191406 89.277344 11.347656 93.027344 11.351562 96.777344 C 11.398438 97.847656 11.214844 98.964844 11.597656 99.992188 C 12.09375 101.003906 13.148438 101.6875 14.140625 102.296875 C 17.496094 104.171875 21.3125 105.265625 24.957031 106.605469 C 25.949219 106.933594 26.9375 107.324219 28.003906 107.410156 C 30.042969 107.445312 32.078125 107.1875 34.117188 107.144531 C 36.417969 107.054688 38.722656 107.003906 41.015625 106.820312 C 43.460938 106.640625 46.769531 106.132812 48.59375 105.898438 C 53.359375 105.253906 58.175781 104.957031 62.972656 104.558594 C 68.78125 103.960938 74.59375 103.378906 80.429688 103.0625 C 81.191406 102.996094 82.105469 103.078125 82.632812 102.496094 C 83.152344 101.917969 83.335938 101.171875 83.476562 100.460938 C 83.640625 99.609375 83.730469 98.753906 83.808594 97.894531 C 84.0625 94.679688 84.226562 91.460938 84.441406 88.246094 C 84.695312 84.089844 84.675781 79.925781 84.765625 75.765625 C 84.910156 70.386719 84.988281 65 84.8125 59.621094 C 84.753906 56.957031 84.507812 54.300781 84.207031 51.65625 Z M 20.5625 6.136719 C 21.449219 4.984375 27.863281 4.648438 30.53125 4.773438 C 32.753906 4.871094 34.972656 5.054688 37.199219 5.054688 C 40.289062 5.039062 43.378906 4.839844 46.464844 4.765625 C 50.859375 4.609375 55.253906 4.789062 59.644531 4.824219 C 62.613281 4.828125 66.855469 4.875 69.136719 5.160156 C 70.933594 5.347656 72.058594 5.5 72.527344 6.238281 C 73.070312 7.042969 73.164062 7.800781 73.269531 8.886719 C 73.34375 9.878906 73.367188 10.871094 73.390625 11.863281 C 73.289062 11.855469 73.1875 11.847656 73.09375 11.832031 C 72.664062 11.789062 72.234375 11.742188 71.800781 11.703125 C 70.535156 11.582031 69.261719 11.53125 67.988281 11.523438 C 64.683594 11.492188 61.375 11.574219 58.066406 11.601562 C 53.648438 11.679688 49.226562 11.570312 44.804688 11.605469 C 41.414062 11.65625 38.03125 11.910156 34.644531 12.097656 C 30.777344 12.335938 26.898438 12.339844 23.027344 12.4375 C 22.128906 12.46875 21.234375 12.492188 20.335938 12.519531 C 20.125 12.542969 19.890625 12.535156 19.667969 12.550781 C 19.671875 10.085938 19.628906 7.378906 20.5625 6.136719 Z M 17.429688 13.996094 C 17.417969 13.972656 17.402344 13.949219 17.390625 13.925781 C 17.335938 13.777344 17.320312 13.820312 17.328125 13.453125 C 17.441406 12.277344 17.492188 11.863281 17.679688 10.773438 C 17.960938 9.351562 18.398438 7.316406 18.945312 6.777344 C 18.984375 6.738281 19.007812 6.722656 19.035156 6.707031 C 18.8125 7.371094 18.691406 8.117188 18.628906 8.828125 C 18.289062 10.226562 18.054688 11.589844 17.945312 12.847656 C 17.890625 13.417969 17.851562 14.011719 17.816406 14.605469 C 17.6875 14.402344 17.554688 14.199219 17.429688 13.996094 Z M 26.601562 105.917969 C 23.609375 104.914062 21.304688 104.097656 18.558594 103.054688 C 16.480469 102.195312 14.625 101.445312 13.25 100.144531 C 13.925781 100.058594 14.597656 99.945312 15.265625 99.828125 C 16.171875 99.675781 17.078125 99.441406 18 99.417969 C 18.519531 99.4375 19.503906 99.679688 20.320312 100.132812 C 21.492188 100.761719 22.976562 102.175781 24.234375 103.359375 C 25.191406 104.292969 26.183594 105.191406 27.175781 106.089844 C 27 106.042969 26.8125 105.988281 26.601562 105.917969 Z M 27.753906 88.015625 C 27.898438 91.058594 28.058594 94.097656 28.234375 97.136719 C 28.332031 99.664062 28.546875 102.1875 28.722656 104.710938 C 28.75 105.132812 28.773438 105.550781 28.792969 105.96875 C 28.800781 106.015625 28.800781 106.066406 28.800781 106.113281 C 28.640625 105.914062 28.390625 105.765625 28.222656 105.578125 C 27.5625 104.976562 26.898438 104.382812 26.246094 103.777344 C 25.152344 102.757812 24.097656 101.699219 22.953125 100.738281 C 22.046875 99.949219 21.058594 99.214844 19.90625 98.820312 C 19.882812 98.8125 19.859375 98.804688 19.835938 98.796875 C 19.851562 98.597656 19.816406 98.382812 19.820312 98.1875 C 19.792969 97.453125 19.765625 96.714844 19.746094 95.980469 C 19.710938 94.035156 19.765625 92.085938 19.742188 90.140625 C 19.734375 85.277344 19.484375 80.421875 19.210938 75.570312 C 19.070312 72.464844 18.925781 69.359375 18.867188 66.25 C 18.839844 64.570312 18.847656 62.890625 18.886719 61.210938 C 18.882812 61.238281 18.882812 61.261719 18.882812 61.289062 C 18.878906 61.140625 18.9375 60.980469 18.847656 60.851562 C 18.714844 60.660156 18.375 60.722656 18.339844 60.964844 C 18.179688 64.410156 18.257812 67.863281 18.324219 71.3125 C 18.382812 75.878906 18.644531 80.441406 18.75 85.007812 C 18.800781 87.347656 18.8125 89.6875 18.769531 92.023438 C 18.742188 94.183594 18.664062 96.359375 18.800781 98.515625 C 18.507812 98.464844 18.214844 98.429688 17.914062 98.433594 C 16.660156 98.523438 15.628906 98.859375 14.667969 99.042969 C 14.933594 98.980469 14.433594 99.09375 14.320312 99.109375 C 13.796875 99.210938 13.273438 99.300781 12.75 99.390625 C 12.683594 99.152344 12.65625 98.835938 12.65625 98.363281 C 12.644531 97 12.652344 95.636719 12.625 94.273438 C 12.550781 90.492188 12.425781 86.710938 12.265625 82.933594 C 12.035156 79.0625 11.757812 75.199219 11.679688 71.324219 C 11.539062 65.433594 11.382812 59.539062 11.332031 53.648438 C 11.296875 49.53125 11.25 45.414062 11.589844 41.308594 C 11.679688 39.308594 12.671875 36.855469 13.421875 34.527344 C 14.007812 32.707031 16.335938 26.578125 17.582031 23.050781 C 17.101562 28.882812 17.027344 34.746094 17.269531 40.589844 C 17.421875 44.199219 17.476562 47.8125 17.617188 51.421875 C 17.644531 52.085938 17.671875 52.746094 17.699219 53.410156 C 17.734375 53.746094 17.691406 54.109375 17.796875 54.429688 C 17.953125 54.753906 18.488281 54.613281 18.445312 54.238281 C 18.246094 49.988281 18.308594 45.730469 18.167969 41.476562 C 18.078125 37.761719 18.011719 34.046875 18.171875 30.332031 C 18.3125 27.40625 18.53125 23.558594 18.933594 20.214844 C 18.996094 19.660156 19.089844 19.109375 19.140625 18.554688 C 19.144531 18.433594 19.191406 18.304688 19.148438 18.1875 C 19.148438 18.183594 19.148438 18.175781 19.144531 18.171875 C 19.195312 18.007812 19.25 17.839844 19.300781 17.671875 C 19.441406 18.265625 19.582031 18.855469 19.71875 19.445312 C 21.234375 26.613281 23.304688 33.667969 25.152344 40.769531 C 25.5625 42.308594 26.125 44.738281 26.265625 45.761719 C 26.652344 48.394531 26.773438 51.054688 26.84375 53.710938 C 26.921875 61.53125 26.929688 69.351562 27.1875 77.171875 C 27.308594 80.789062 27.539062 84.402344 27.757812 88.019531 Z M 83.347656 82.914062 C 83.289062 86.800781 82.976562 90.683594 82.746094 94.5625 C 82.636719 96.171875 82.554688 97.785156 82.351562 99.386719 C 82.355469 99.367188 82.359375 99.375 82.34375 99.445312 C 82.34375 99.445312 82.34375 99.449219 82.34375 99.449219 C 82.339844 99.472656 82.339844 99.492188 82.335938 99.511719 C 82.335938 99.507812 82.335938 99.503906 82.335938 99.496094 C 82.300781 99.730469 82.265625 99.960938 82.21875 100.1875 C 82.03125 100.976562 81.996094 101.328125 81.605469 101.804688 C 81.09375 101.886719 75.546875 102.183594 72.78125 102.445312 C 69.140625 102.722656 65.523438 103.191406 61.886719 103.488281 C 57.738281 103.816406 53.582031 104.105469 49.457031 104.625 C 46.582031 105 44.496094 105.332031 41.515625 105.617188 C 39.148438 105.832031 36.769531 105.882812 34.398438 105.976562 C 32.964844 106.023438 31.535156 106.113281 30.109375 106.195312 C 30.109375 106.050781 30.082031 105.898438 30.085938 105.757812 C 30.042969 104.925781 29.992188 104.097656 29.925781 103.269531 C 29.734375 101.066406 29.621094 98.855469 29.511719 96.648438 C 29.335938 93.703125 29.191406 90.757812 29.046875 87.8125 C 28.769531 83.3125 28.496094 78.816406 28.410156 74.3125 C 28.285156 69.863281 28.242188 65.417969 28.203125 60.972656 C 28.164062 57.421875 28.230469 53.867188 28.011719 50.324219 C 27.902344 48.605469 27.769531 46.882812 27.476562 45.179688 C 27.113281 43.085938 26.5625 41.023438 26.011719 38.964844 C 25.136719 35.660156 24.246094 32.351562 23.363281 29.046875 C 22.070312 24.34375 21.117188 19.574219 19.941406 14.847656 C 19.824219 14.320312 19.734375 13.921875 19.667969 13.582031 C 19.667969 13.554688 19.667969 13.53125 19.667969 13.507812 C 20.289062 13.484375 28.5 13.347656 31.191406 13.261719 C 35.171875 13.136719 39.144531 12.832031 43.128906 12.742188 C 46.125 12.664062 49.121094 12.777344 52.121094 12.789062 C 55.636719 12.804688 59.15625 12.753906 62.671875 12.707031 C 65.015625 12.679688 67.359375 12.640625 69.699219 12.71875 C 71.148438 12.757812 72.21875 12.925781 73.355469 13.011719 C 73.390625 13.21875 73.484375 13.421875 73.519531 13.628906 C 73.652344 14.164062 73.78125 14.703125 73.90625 15.238281 C 74.851562 19.332031 75.851562 23.414062 76.886719 27.488281 C 77.945312 31.480469 79.253906 35.414062 80.363281 39.394531 C 80.910156 41.378906 81.59375 43.332031 82 45.339844 C 82.625 48.453125 82.984375 52.238281 83.320312 55.832031 C 83.921875 64.847656 83.445312 73.886719 83.347656 82.914062 Z M 83.347656 82.914062 "/></g><path style=" stroke:none;fill-rule:nonzero;fill:#353333;fill-opacity:1;" d="M 82.351562 99.386719 C 82.34375 99.40625 82.332031 99.453125 82.335938 99.496094 C 82.335938 99.480469 82.339844 99.464844 82.34375 99.449219 C 82.34375 99.429688 82.347656 99.40625 82.351562 99.386719 Z M 82.351562 99.386719 "/><path style=" stroke:none;fill-rule:nonzero;fill:#353333;fill-opacity:1;" d="M 80.101562 53.417969 C 79.507812 52.34375 78.300781 51.90625 77.167969 51.652344 C 75.074219 51.191406 72.910156 51.246094 70.777344 51.175781 C 67.320312 51.082031 63.871094 51.289062 60.417969 51.441406 C 56.296875 51.679688 52.175781 51.902344 48.054688 52.164062 C 44.769531 52.402344 41.484375 52.617188 38.203125 52.878906 C 37.070312 52.976562 35.929688 53.035156 34.8125 53.261719 C 34.105469 53.402344 33.382812 53.582031 32.789062 54.019531 C 31.441406 55.03125 31.171875 56.824219 31.019531 58.398438 C 30.890625 60.054688 30.90625 61.71875 30.929688 63.378906 C 30.972656 65.371094 31.082031 67.359375 31.230469 69.347656 C 31.238281 69.484375 31.242188 69.621094 31.246094 69.757812 C 31.351562 72.320312 31.421875 74.886719 31.628906 77.445312 C 31.855469 79.691406 31.925781 85.417969 34.003906 86.582031 C 34.570312 86.925781 35.238281 87.046875 35.890625 87.128906 C 36.917969 87.257812 37.957031 87.25 38.988281 87.207031 C 41.332031 87.101562 43.667969 86.925781 46.011719 86.859375 C 50.621094 86.667969 55.21875 86.273438 59.816406 85.9375 C 63.191406 85.664062 66.570312 85.453125 69.945312 85.15625 C 72.140625 84.984375 74.335938 84.808594 76.535156 84.632812 C 77.523438 84.527344 78.558594 84.519531 79.492188 84.148438 C 79.972656 83.949219 80.269531 83.496094 80.5 83.050781 C 80.707031 82.660156 80.859375 82.214844 80.964844 81.734375 C 81.082031 81.554688 81.0625 81.324219 81.089844 81.121094 C 81.21875 79 81.203125 76.875 81.25 74.75 C 81.277344 72.296875 81.355469 69.847656 81.398438 67.394531 C 81.421875 65.640625 81.40625 63.886719 81.40625 62.136719 C 81.398438 60.777344 81.035156 55.117188 80.097656 53.417969 Z M 80.335938 62.640625 C 80.375 66.867188 80.246094 71.09375 80.175781 75.316406 C 80.140625 76.960938 80.121094 78.605469 80.074219 80.25 C 80.054688 80.628906 80.070312 80.519531 80.019531 81.117188 C 80.003906 81.238281 79.984375 81.367188 79.992188 81.488281 C 79.910156 81.800781 79.800781 82.097656 79.664062 82.390625 C 79.320312 83.03125 79.28125 83.054688 79.027344 83.175781 C 78.53125 83.339844 78.246094 83.378906 77.496094 83.457031 C 75.289062 83.664062 73.074219 83.804688 70.867188 84.007812 C 69.214844 84.140625 67.566406 84.300781 65.914062 84.445312 C 64.167969 84.5625 62.425781 84.6875 60.683594 84.839844 C 55.777344 85.222656 50.875 85.65625 45.960938 85.910156 C 43.851562 85.992188 41.742188 86.117188 39.636719 86.238281 C 37.75 86.347656 35.441406 86.367188 34.421875 85.75 C 32.863281 84.683594 32.699219 79.277344 32.457031 76.574219 C 32.222656 72.90625 32.050781 69.234375 31.894531 65.5625 C 31.875 64.710938 31.847656 63.859375 31.828125 63.007812 C 31.835938 62.371094 31.851562 61.734375 31.878906 61.097656 C 31.941406 60.015625 31.957031 56.867188 32.789062 55.5 C 33.015625 55.101562 33.425781 54.671875 34.140625 54.449219 C 35.664062 53.949219 37.902344 53.902344 39.871094 53.726562 C 43.574219 53.460938 47.277344 53.203125 50.988281 53.003906 C 55.03125 52.8125 59.074219 52.554688 63.117188 52.402344 C 66.308594 52.226562 69.503906 52.179688 72.699219 52.292969 C 74.464844 52.375 76.902344 52.382812 78.523438 53.28125 C 79.042969 53.570312 79.242188 53.949219 79.328125 54.253906 C 79.894531 56.289062 80.316406 60.800781 80.335938 62.636719 Z M 80.335938 62.640625 "/><path style=" stroke:none;fill-rule:nonzero;fill:#353333;fill-opacity:1;" d="M 31.199219 46.859375 C 30.734375 44.761719 30.183594 42.679688 29.613281 40.605469 C 29.507812 40.230469 29.398438 39.855469 29.292969 39.476562 C 29.253906 39.320312 29.214844 39.140625 29.050781 39.074219 C 28.769531 38.929688 28.433594 39.234375 28.554688 39.53125 C 29.238281 42.070312 29.777344 44.644531 30.445312 47.1875 C 30.53125 47.433594 30.847656 47.527344 31.058594 47.378906 C 31.328125 47.152344 31.207031 46.9375 31.203125 46.863281 Z M 31.199219 46.859375 "/><path style=" stroke:none;fill-rule:nonzero;fill:#353333;fill-opacity:1;" d="M 77.109375 36.660156 C 76.171875 33.542969 75.230469 30.425781 74.199219 27.339844 C 73.90625 26.417969 73.585938 25.503906 73.347656 24.566406 C 73.269531 24.355469 73.3125 24.050781 73.082031 23.933594 C 72.875 23.832031 72.613281 24.007812 72.640625 24.242188 C 73.152344 26.589844 73.9375 28.867188 74.613281 31.171875 C 75.765625 35.230469 77.027344 39.253906 78.222656 43.296875 C 78.277344 43.429688 78.285156 43.597656 78.394531 43.703125 C 78.582031 43.9375 78.988281 43.8125 79.03125 43.523438 C 78.777344 41.960938 77.773438 38.839844 77.109375 36.660156 Z M 77.109375 36.660156 "/><path style=" stroke:none;fill-rule:nonzero;fill:#353333;fill-opacity:1;" d="M 69.96875 70.375 C 69.960938 70.378906 69.957031 70.378906 69.949219 70.382812 C 69.953125 70.382812 69.953125 70.382812 69.957031 70.378906 C 69.960938 70.378906 69.964844 70.375 69.96875 70.375 Z M 69.96875 70.375 "/><path style=" stroke:none;fill-rule:nonzero;fill:#353333;fill-opacity:1;" d="M 74.328125 66.808594 C 74.324219 66.816406 74.316406 66.824219 74.3125 66.828125 C 74.316406 66.824219 74.324219 66.816406 74.328125 66.808594 Z M 74.328125 66.808594 "/><path style=" stroke:none;fill-rule:nonzero;fill:#353333;fill-opacity:1;" d="M 74.632812 66.273438 C 74.625 66.296875 74.617188 66.320312 74.609375 66.335938 C 74.617188 66.316406 74.625 66.296875 74.632812 66.273438 Z M 74.632812 66.273438 "/><path style=" stroke:none;fill-rule:nonzero;fill:#353333;fill-opacity:1;" d="M 78.480469 69.992188 C 78.300781 69.910156 78.117188 70.007812 77.992188 70.136719 C 77.84375 70.21875 77.714844 70.339844 77.5625 70.425781 C 77.238281 70.640625 76.894531 70.832031 76.546875 71.019531 C 76.375 71.074219 76.214844 71.1875 76.042969 71.226562 C 75.585938 71.367188 75.726562 71.335938 75.199219 71.402344 C 75.144531 71.40625 75.085938 71.410156 75.03125 71.417969 C 74.988281 71.410156 74.945312 71.410156 74.902344 71.414062 C 74.851562 71.417969 74.777344 71.414062 74.71875 71.414062 C 74.046875 71.355469 74.164062 71.363281 73.585938 71.121094 C 73.359375 70.953125 73.265625 70.949219 73.050781 70.664062 C 73.015625 70.621094 72.984375 70.574219 72.953125 70.527344 C 72.945312 70.507812 72.929688 70.476562 72.902344 70.425781 C 72.894531 70.402344 72.886719 70.386719 72.878906 70.363281 C 73.453125 69.929688 73.949219 69.472656 74.320312 69.039062 C 74.695312 68.605469 75.027344 68.136719 75.320312 67.652344 C 75.4375 67.4375 75.589844 67.226562 75.671875 67 C 75.671875 66.992188 75.679688 66.984375 75.683594 66.972656 C 75.871094 66.652344 76.050781 66.324219 76.15625 65.976562 C 76.21875 65.78125 76.273438 65.582031 76.296875 65.378906 C 76.347656 65.210938 76.339844 65.023438 76.308594 64.859375 C 76.214844 64.027344 75.277344 63.4375 74.394531 63.628906 C 73.597656 63.761719 72.96875 64.316406 72.484375 64.890625 C 71.773438 65.722656 71.421875 66.738281 71.175781 67.753906 C 71.003906 68.398438 70.933594 69.113281 71.027344 69.785156 C 70.683594 69.996094 70.328125 70.191406 69.96875 70.375 C 70.046875 70.335938 70.121094 70.304688 69.972656 70.375 C 69.96875 70.378906 69.960938 70.378906 69.953125 70.382812 C 69.933594 70.394531 69.910156 70.40625 69.890625 70.417969 C 69.90625 70.40625 69.925781 70.394531 69.949219 70.386719 C 68.878906 70.847656 68.695312 70.949219 67.640625 70.957031 C 67.511719 70.945312 67.246094 70.917969 67.085938 70.882812 C 66.554688 70.6875 66.714844 70.738281 66.457031 70.5625 C 66.285156 70.410156 66.3125 70.484375 66.074219 70.136719 C 66.023438 70.039062 65.976562 69.933594 65.941406 69.832031 C 66.117188 69.738281 66.292969 69.636719 66.464844 69.527344 C 68.042969 68.476562 69.285156 66.75 69.246094 64.917969 C 69.128906 63.53125 67.636719 63.214844 66.523438 63.996094 C 65.601562 64.628906 64.96875 65.574219 64.5625 66.546875 C 64.253906 67.320312 64.101562 68.15625 64.136719 68.953125 C 63.324219 69.21875 62.371094 69.363281 61.257812 69.367188 C 60.625 69.367188 60.886719 69.347656 60.070312 69.339844 C 59.558594 69.363281 59.105469 69.769531 59.140625 70.253906 C 59.15625 70.574219 59.378906 70.839844 59.554688 71.101562 C 59.722656 71.347656 59.878906 71.597656 60.027344 71.855469 C 60.207031 72.179688 60.375 72.511719 60.503906 72.859375 C 60.746094 73.492188 60.960938 74.402344 60.972656 74.480469 C 61.175781 75.171875 61.1875 76.984375 61.15625 76.957031 C 61.105469 77.644531 60.941406 78.328125 60.726562 78.992188 C 60.710938 79.039062 60.691406 79.089844 60.675781 79.136719 C 60.667969 79.15625 60.65625 79.1875 60.640625 79.234375 C 59.960938 80.746094 59.582031 81.402344 58.476562 82.105469 C 58.476562 82.105469 58.476562 82.105469 58.472656 82.105469 C 58.390625 82.140625 58.300781 82.171875 58.214844 82.199219 C 58.136719 82.210938 58.054688 82.21875 57.976562 82.222656 C 57.914062 82.21875 57.855469 82.207031 57.796875 82.195312 C 57.78125 82.191406 57.769531 82.183594 57.75 82.179688 C 57.746094 82.175781 57.742188 82.175781 57.738281 82.171875 C 57.722656 82.160156 57.707031 82.148438 57.6875 82.132812 C 57.667969 82.109375 57.640625 82.085938 57.621094 82.058594 C 57.613281 82.042969 57.605469 82.03125 57.597656 82.015625 C 57.558594 81.9375 57.496094 81.796875 57.476562 81.714844 C 56.941406 79.300781 57.546875 75.675781 58.136719 72.390625 C 58.4375 70.863281 58.71875 69.328125 59.023438 67.800781 C 59.214844 67.628906 59.398438 67.453125 59.574219 67.273438 C 61.917969 64.941406 64.207031 61.128906 64.617188 58.683594 C 64.722656 58.078125 64.847656 57.449219 64.691406 56.847656 C 64.53125 56.164062 63.75 55.714844 63.007812 55.863281 C 61.769531 56.074219 60.949219 57.089844 60.359375 58.042969 C 59.285156 59.816406 58.726562 61.796875 58.269531 63.761719 C 58 64.863281 57.746094 65.964844 57.523438 67.074219 C 57.0625 67.453125 56.550781 67.796875 55.824219 68.226562 C 55.277344 68.578125 53.738281 69.195312 53.25 69.238281 C 52.445312 69.347656 52.636719 69.25 51.847656 69.246094 C 52.539062 68.667969 52.824219 68.378906 53.476562 67.667969 C 53.671875 67.457031 53.777344 67.34375 53.796875 67.292969 C 53.855469 67.246094 53.910156 67.191406 53.953125 67.125 C 54.175781 66.859375 54.394531 66.589844 54.597656 66.308594 C 55.601562 64.960938 56.363281 63.363281 56.71875 62.347656 C 57.085938 61.339844 57.390625 60.3125 57.574219 59.265625 C 57.554688 59.320312 57.539062 59.375 57.519531 59.425781 C 57.6875 58.871094 57.730469 58.269531 57.671875 57.695312 C 57.539062 57.175781 57.679688 57.167969 57.109375 56.5625 C 53.703125 54.351562 51.257812 64.09375 50.828125 66.101562 C 50.578125 67.261719 50.339844 68.421875 50.117188 69.585938 C 49.867188 69.796875 49.527344 70.011719 49.296875 70.222656 C 49.300781 70.21875 49.304688 70.214844 49.308594 70.210938 C 49.304688 70.214844 49.300781 70.214844 49.300781 70.214844 C 49.53125 69.464844 49.625 68.695312 49.585938 68.027344 C 49.539062 66.964844 49.164062 65.777344 48.074219 65.261719 C 45.398438 64.148438 43.714844 67.328125 43.402344 69.347656 C 43.304688 69.484375 43.257812 69.550781 43.140625 69.730469 C 42.992188 69.902344 42.890625 70.113281 42.753906 70.296875 C 42.617188 70.503906 42.503906 70.730469 42.363281 70.941406 C 42.230469 71.144531 42.273438 71.09375 41.898438 71.566406 C 41.148438 72.390625 41.070312 72.460938 40.214844 73.054688 C 39.601562 73.40625 39.878906 73.300781 39.175781 73.523438 C 39.035156 73.550781 38.890625 73.566406 38.746094 73.566406 C 38.191406 73.488281 38.445312 73.539062 38.070312 73.410156 C 37.996094 73.375 37.921875 73.339844 37.847656 73.300781 C 37.84375 73.296875 37.835938 73.292969 37.832031 73.289062 C 37.332031 72.90625 37.609375 73.164062 37.25 72.757812 C 36.828125 72.136719 36.960938 72.351562 36.636719 71.679688 C 35.839844 69.734375 35.898438 68.273438 36.25 66.066406 C 36.554688 64.039062 37.761719 61.636719 38.675781 60.808594 C 38.839844 60.671875 39.015625 60.550781 39.203125 60.449219 C 39.371094 60.375 39.539062 60.308594 39.71875 60.261719 C 39.820312 60.242188 39.921875 60.234375 40.023438 60.230469 C 40.070312 60.238281 40.128906 60.246094 40.1875 60.261719 C 40.257812 60.285156 40.324219 60.316406 40.390625 60.351562 C 40.453125 60.394531 40.515625 60.441406 40.574219 60.492188 C 40.664062 60.589844 40.742188 60.699219 40.8125 60.8125 C 40.863281 60.90625 40.902344 61.003906 40.9375 61.101562 C 40.957031 61.148438 40.96875 61.191406 40.980469 61.226562 C 40.992188 61.285156 41.003906 61.34375 41.015625 61.40625 C 41.03125 61.488281 41.027344 61.574219 41.050781 61.65625 C 41.074219 61.8125 41.085938 61.972656 41.089844 62.132812 C 41.074219 62.433594 41.101562 62.382812 40.992188 62.964844 C 40.945312 63.191406 40.894531 63.417969 40.820312 63.640625 C 40.8125 63.660156 40.800781 63.691406 40.78125 63.734375 C 40.753906 63.785156 40.738281 63.84375 40.726562 63.902344 C 40.703125 64.035156 40.660156 64.167969 40.660156 64.300781 C 40.679688 64.714844 41.300781 64.890625 41.578125 64.5625 C 41.675781 64.460938 41.726562 64.40625 41.730469 64.390625 C 41.929688 64.214844 42.011719 63.9375 42.121094 63.710938 C 42.199219 63.492188 42.417969 62.957031 42.527344 62.328125 C 42.566406 62.078125 42.585938 61.828125 42.597656 61.574219 C 42.625 61.390625 42.585938 61.199219 42.558594 61.015625 C 42.488281 60.636719 42.359375 60.265625 42.144531 59.9375 C 41.398438 58.765625 39.960938 58.433594 38.644531 59.050781 C 36.601562 59.898438 35.308594 63.039062 34.839844 64.945312 C 34.28125 67.332031 34.113281 69.894531 35.09375 72.1875 C 35.582031 73.332031 36.367188 74.507812 37.707031 74.898438 C 39.25 75.4375 40.863281 74.632812 41.988281 73.652344 C 42.574219 73.164062 43.117188 72.613281 43.554688 72 C 43.703125 72.402344 43.9375 72.773438 44.292969 73.050781 C 45.035156 73.597656 46.117188 73.621094 46.960938 73.222656 C 47.789062 72.84375 48.417969 72.132812 48.855469 71.296875 C 49.144531 71.152344 49.421875 70.980469 49.699219 70.8125 C 49.757812 70.78125 49.816406 70.742188 49.871094 70.703125 C 49.882812 70.695312 49.894531 70.6875 49.90625 70.679688 C 49.691406 71.839844 49.496094 73 49.324219 74.164062 C 48.941406 76.894531 48.65625 79.78125 49.730469 82.394531 C 50.3125 83.640625 51.828125 83.636719 52.765625 82.683594 C 53.453125 81.972656 53.902344 81.09375 54.199219 80.1875 C 54.445312 79.453125 54.652344 78.703125 54.726562 77.941406 C 55.070312 75.546875 54.171875 72.652344 53.148438 70.761719 C 53.878906 70.679688 54.585938 70.460938 55.253906 70.183594 C 55.898438 69.914062 56.511719 69.597656 57.097656 69.238281 C 56.476562 72.398438 55.816406 75.566406 55.664062 78.769531 C 55.640625 79.648438 55.648438 80.527344 55.757812 81.394531 C 55.839844 81.957031 55.972656 82.53125 56.335938 82.996094 C 56.992188 83.835938 58.335938 83.90625 59.265625 83.394531 C 60.667969 82.636719 61.511719 81.257812 62.085938 79.902344 C 63.128906 77.414062 62.921875 74.664062 61.980469 72.203125 C 61.785156 71.738281 61.546875 71.289062 61.28125 70.851562 C 62.347656 70.847656 63.425781 70.726562 64.445312 70.429688 C 64.9375 71.621094 66.023438 72.476562 67.832031 72.453125 C 68.984375 72.46875 70.347656 71.949219 71.578125 71.234375 C 71.84375 71.59375 72.203125 71.902344 72.6875 72.113281 C 72.777344 72.160156 72.875 72.199219 72.976562 72.226562 C 73.003906 72.238281 73.050781 72.257812 73.128906 72.28125 C 73.59375 72.4375 74.09375 72.5 74.589844 72.460938 C 74.753906 72.441406 74.9375 72.4375 75.097656 72.390625 C 75.109375 72.390625 75.121094 72.390625 75.140625 72.386719 C 75.328125 72.367188 75.515625 72.320312 75.703125 72.28125 C 76.042969 72.203125 76.367188 72.070312 76.675781 71.910156 C 76.78125 71.847656 76.90625 71.796875 77 71.71875 C 77.53125 71.410156 78.003906 71.027344 78.453125 70.625 C 78.460938 70.621094 78.460938 70.613281 78.464844 70.605469 C 78.480469 70.59375 78.496094 70.578125 78.515625 70.5625 C 78.734375 70.421875 78.71875 70.097656 78.472656 69.996094 Z M 46.207031 71.902344 C 43.78125 72.582031 45.320312 67.394531 46.355469 66.820312 C 48.976562 65.355469 48.066406 71.378906 46.207031 71.902344 Z M 55.828125 57.9375 C 55.90625 57.871094 55.988281 57.8125 56.078125 57.761719 C 56.429688 58.542969 56.074219 60.078125 55.402344 62.097656 C 55.257812 62.597656 54.738281 63.925781 54.085938 65.054688 C 53.792969 65.582031 53.472656 66.015625 53.316406 66.230469 C 53.230469 66.371094 53.085938 66.507812 52.992188 66.65625 C 52.761719 66.953125 52.527344 67.246094 52.285156 67.53125 C 52.234375 67.585938 52.191406 67.632812 52.148438 67.683594 C 52.933594 63.910156 54.128906 59.800781 55.828125 57.941406 Z M 52.773438 79.40625 C 52.59375 80.066406 52.179688 81.023438 51.722656 81.527344 C 51.660156 81.59375 51.597656 81.664062 51.527344 81.726562 C 51.476562 81.765625 51.425781 81.800781 51.371094 81.832031 C 51.34375 81.84375 51.316406 81.851562 51.289062 81.859375 C 51.273438 81.839844 51.257812 81.820312 51.242188 81.800781 C 50.816406 80.742188 50.765625 80.1875 50.632812 78.816406 C 50.519531 76.46875 50.988281 73.820312 51.496094 71.09375 C 52.277344 72.453125 52.859375 73.960938 53.070312 75.441406 C 53.273438 77.070312 53.226562 77.761719 52.773438 79.402344 Z M 60.652344 61.203125 C 60.847656 60.566406 61.800781 58.410156 62.484375 57.828125 C 62.527344 57.785156 62.597656 57.71875 62.648438 57.671875 C 62.753906 57.585938 62.863281 57.507812 62.980469 57.441406 C 62.988281 57.4375 62.992188 57.433594 63 57.433594 C 63.050781 57.410156 63.101562 57.386719 63.152344 57.371094 C 63.195312 57.929688 63.167969 57.683594 63.113281 58.277344 C 62.984375 59.160156 62.25 60.941406 61.296875 62.527344 C 60.726562 63.457031 60.335938 64.015625 59.671875 64.820312 C 59.957031 63.605469 60.277344 62.398438 60.652344 61.199219 Z M 67.34375 65.289062 C 67.429688 65.226562 67.519531 65.171875 67.617188 65.117188 C 67.621094 65.117188 67.625 65.113281 67.632812 65.113281 C 67.636719 65.28125 67.601562 65.574219 67.445312 66.039062 C 67.097656 66.863281 66.554688 67.574219 65.792969 68.128906 C 66.011719 66.800781 66.652344 65.851562 67.34375 65.289062 Z M 74.480469 65.164062 C 74.546875 65.136719 74.613281 65.113281 74.679688 65.089844 C 74.691406 65.089844 74.699219 65.089844 74.707031 65.085938 C 74.714844 65.085938 74.71875 65.085938 74.726562 65.085938 C 74.738281 65.171875 74.746094 65.257812 74.765625 65.339844 C 74.769531 65.417969 74.773438 65.492188 74.769531 65.570312 C 74.75 65.789062 74.714844 66.003906 74.648438 66.214844 C 74.644531 66.238281 74.636719 66.253906 74.632812 66.273438 C 74.636719 66.261719 74.640625 66.257812 74.644531 66.246094 C 74.640625 66.257812 74.636719 66.265625 74.632812 66.273438 C 74.609375 66.359375 74.589844 66.390625 74.609375 66.335938 C 74.589844 66.386719 74.566406 66.4375 74.539062 66.488281 C 74.539062 66.492188 74.539062 66.492188 74.539062 66.496094 C 74.460938 66.59375 74.402344 66.703125 74.328125 66.808594 C 74.332031 66.800781 74.335938 66.796875 74.34375 66.789062 C 74.335938 66.796875 74.332031 66.800781 74.328125 66.808594 C 74.246094 66.933594 74.253906 66.910156 74.3125 66.828125 C 74.183594 67.007812 74.050781 67.183594 73.90625 67.355469 C 73.59375 67.738281 73.238281 68.097656 72.859375 68.425781 C 72.792969 68.480469 72.722656 68.535156 72.65625 68.589844 C 72.878906 67.125 73.519531 65.707031 74.480469 65.164062 Z M 74.480469 65.164062 "/><path style=" stroke:none;fill-rule:nonzero;fill:#353333;fill-opacity:1;" d="M 42.71875 70.347656 C 42.734375 70.332031 42.746094 70.3125 42.761719 70.296875 C 42.785156 70.261719 42.808594 70.222656 42.832031 70.1875 C 42.796875 70.242188 42.757812 70.296875 42.71875 70.347656 Z M 42.71875 70.347656 "/><path style=" stroke:none;fill-rule:nonzero;fill:#353333;fill-opacity:1;" d="M 33.566406 91.375 C 33.339844 91.105469 32.890625 91.382812 33.019531 91.710938 C 33.308594 94.246094 33.347656 97.765625 33.539062 100.644531 C 33.550781 100.917969 33.933594 101.042969 34.105469 100.824219 C 34.210938 100.695312 34.171875 100.53125 34.175781 100.378906 C 34.105469 97.621094 33.960938 94.863281 33.746094 92.109375 C 33.703125 91.867188 33.71875 91.578125 33.566406 91.371094 Z M 33.566406 91.375 "/><path style=" stroke:none;fill-rule:nonzero;fill:#353333;fill-opacity:1;" d="M 79.6875 91.148438 C 79.644531 90.796875 79.601562 90.441406 79.550781 90.085938 C 79.542969 90.003906 79.5 89.921875 79.433594 89.867188 C 79.226562 89.679688 78.867188 89.867188 78.902344 90.144531 C 79.238281 92.636719 79.367188 95.148438 79.496094 97.660156 C 79.582031 98.144531 80.234375 97.992188 80.144531 97.503906 C 80.082031 95.382812 79.914062 93.261719 79.6875 91.152344 Z M 79.6875 91.148438 "/><path style=" stroke:none;fill-rule:nonzero;fill:#353333;fill-opacity:1;" d="M 24.632812 15.683594 C 24.375 15.523438 24.390625 15.605469 24.257812 15.585938 C 23.792969 15.585938 23.332031 15.613281 22.867188 15.605469 C 22.640625 15.621094 22.378906 15.53125 22.167969 15.632812 C 21.796875 15.808594 21.972656 16.402344 22.382812 16.359375 C 22.640625 16.367188 23.257812 16.417969 23.949219 16.433594 C 24.148438 16.417969 24.375 16.460938 24.558594 16.367188 C 24.820312 16.25 24.855469 15.855469 24.632812 15.683594 Z M 24.632812 15.683594 "/><path style=" stroke:none;fill-rule:nonzero;fill:#353333;fill-opacity:1;" d="M 29.53125 15.453125 C 29.195312 15.359375 28.828125 15.4375 28.484375 15.433594 C 28.152344 15.476562 27.777344 15.40625 27.464844 15.519531 C 27.070312 15.710938 27.257812 16.335938 27.691406 16.289062 C 28.164062 16.300781 28.636719 16.285156 29.109375 16.277344 C 29.308594 16.265625 29.539062 16.289062 29.675781 16.113281 C 29.855469 15.910156 29.777344 15.566406 29.53125 15.453125 Z M 29.53125 15.453125 "/><path style=" stroke:none;fill-rule:nonzero;fill:#353333;fill-opacity:1;" d="M 36.511719 15.164062 C 36.289062 15.070312 36.039062 15.148438 35.808594 15.152344 C 35.28125 15.199219 34.757812 15.304688 34.242188 15.425781 C 33.96875 15.511719 33.589844 15.488281 33.453125 15.785156 C 33.269531 16.136719 33.65625 16.554688 34.023438 16.40625 C 34.714844 16.242188 34.910156 16.164062 35.714844 16.085938 C 36.027344 16.027344 36.429688 16.117188 36.664062 15.863281 C 36.855469 15.644531 36.773438 15.28125 36.511719 15.160156 Z M 36.511719 15.164062 "/><path style=" stroke:none;fill-rule:nonzero;fill:#353333;fill-opacity:1;" d="M 43.734375 14.851562 C 43.695312 14.835938 43.660156 14.824219 43.621094 14.824219 C 43.402344 14.800781 43.539062 14.796875 43.175781 14.773438 C 42.824219 14.738281 42.472656 14.792969 42.121094 14.816406 C 41.800781 14.863281 41.398438 14.746094 41.167969 15.023438 C 40.867188 15.367188 41.164062 15.953125 41.621094 15.894531 C 42.398438 15.882812 43.191406 15.84375 43.710938 15.65625 C 43.753906 15.652344 43.792969 15.636719 43.828125 15.613281 C 43.84375 15.609375 43.851562 15.601562 43.863281 15.59375 C 43.867188 15.59375 43.871094 15.59375 43.875 15.589844 C 43.871094 15.589844 43.871094 15.59375 43.863281 15.59375 C 44.171875 15.40625 44.058594 14.925781 43.734375 14.851562 Z M 43.734375 14.851562 "/><path style=" stroke:none;fill-rule:nonzero;fill:#353333;fill-opacity:1;" d="M 51.179688 14.816406 C 51.101562 14.757812 51.015625 14.71875 50.921875 14.707031 C 50.875 14.699219 50.714844 14.683594 50.648438 14.683594 C 50.167969 14.664062 49.691406 14.742188 49.21875 14.804688 C 48.945312 14.855469 48.605469 14.804688 48.410156 15.042969 C 48.113281 15.378906 48.40625 15.957031 48.859375 15.902344 C 49.554688 15.820312 50.261719 15.792969 50.945312 15.644531 C 50.933594 15.644531 50.921875 15.648438 50.914062 15.648438 C 51.324219 15.628906 51.5 15.070312 51.179688 14.816406 Z M 51.179688 14.816406 "/><path style=" stroke:none;fill-rule:nonzero;fill:#353333;fill-opacity:1;" d="M 57.902344 14.691406 C 57.636719 14.671875 57.371094 14.660156 57.109375 14.671875 C 56.648438 14.679688 56.191406 14.722656 55.734375 14.761719 C 55.539062 14.792969 55.316406 14.75 55.140625 14.847656 C 54.679688 15.066406 54.898438 15.800781 55.402344 15.746094 C 56.046875 15.71875 56.691406 15.691406 57.335938 15.660156 C 57.59375 15.625 57.878906 15.65625 58.117188 15.546875 C 58.546875 15.34375 58.355469 14.675781 57.898438 14.691406 Z M 57.902344 14.691406 "/><path style=" stroke:none;fill-rule:nonzero;fill:#353333;fill-opacity:1;" d="M 64.992188 14.675781 C 64.703125 14.5625 64.378906 14.660156 64.074219 14.664062 C 63.800781 14.6875 63.527344 14.722656 63.253906 14.726562 C 63.054688 14.742188 62.832031 14.671875 62.652344 14.78125 C 62.183594 15.007812 62.402344 15.746094 62.921875 15.695312 C 63.425781 15.703125 63.539062 15.722656 64.214844 15.710938 C 64.585938 15.6875 65.144531 15.773438 65.269531 15.316406 C 65.355469 15.070312 65.226562 14.785156 64.992188 14.675781 Z M 64.992188 14.675781 "/><path style=" stroke:none;fill-rule:nonzero;fill:#353333;fill-opacity:1;" d="M 73.039062 14.660156 C 72.765625 14.445312 72.394531 14.5625 72.070312 14.535156 C 71.453125 14.535156 70.835938 14.53125 70.222656 14.535156 C 69.988281 14.558594 69.726562 14.488281 69.515625 14.609375 C 68.988281 14.867188 69.234375 15.691406 69.816406 15.632812 C 70.578125 15.617188 71.335938 15.625 72.09375 15.621094 C 72.371094 15.59375 72.6875 15.6875 72.941406 15.554688 C 73.285156 15.40625 73.328125 14.886719 73.039062 14.660156 Z M 73.039062 14.660156 "/></g></svg>