<svg xmlns="http://www.w3.org/2000/svg" xmlns:xlink="http://www.w3.org/1999/xlink" width="150" zoomAndPan="magnify" viewBox="0 0 113.04 120.96" height="150" preserveAspectRatio="xMidYMid meet" version="1.2"><defs><clipPath id="a6d63c28f4"><path d="M 29.335938 20.980469 L 106.375 20.980469 L 106.375 98.019531 L 29.335938 98.019531 Z M 29.335938 20.980469 "/></clipPath><clipPath id="ae80289a37"><path d="M 67.855469 20.980469 C 46.582031 20.980469 29.335938 38.226562 29.335938 59.5 C 29.335938 80.773438 46.582031 98.019531 67.855469 98.019531 C 89.128906 98.019531 106.375 80.773438 106.375 59.5 C 106.375 38.226562 89.128906 20.980469 67.855469 20.980469 Z M 67.855469 20.980469 "/></clipPath><clipPath id="a2764d358f"><path d="M 39 6.03125 L 102 6.03125 L 102 45 L 39 45 Z M 39 6.03125 "/></clipPath><clipPath id="05bbc8fd2a"><path d="M 50.164062 10.804688 L 106.300781 10.804688 L 106.300781 41 L 50.164062 41 Z M 50.164062 10.804688 "/></clipPath><clipPath id="29db60db28"><path d="M 1.871094 75.640625 L 98.175781 75.640625 L 98.175781 104.199219 L 1.871094 104.199219 Z M 1.871094 75.640625 "/></clipPath></defs><g id="e0d12349a3"><g clip-rule="nonzero" clip-path="url(#a6d63c28f4)"><g clip-rule="nonzero" clip-path="url(#ae80289a37)"><path style=" stroke:none;fill-rule:nonzero;fill:#000000;fill-opacity:1;" d="M 29.335938 20.980469 L 106.375 20.980469 L 106.375 98.019531 L 29.335938 98.019531 Z M 29.335938 20.980469 "/></g></g><g clip-rule="nonzero" clip-path="url(#a2764d358f)"><path style=" stroke:none;fill-rule:nonzero;fill:#353333;fill-opacity:1;" d="M 57.585938 44.558594 C 59.847656 42.511719 57.941406 39.1875 56.425781 37.347656 C 53.859375 34.21875 50.179688 34.183594 46.78125 32.578125 C 45.09375 31.78125 43.566406 30.640625 42.304688 29.242188 C 40.433594 27.167969 40.425781 24.910156 42.242188 22.796875 C 44.519531 20.144531 48.226562 19.894531 51.417969 20.171875 C 57.921875 20.734375 64.636719 23.953125 71.097656 21.636719 C 74.109375 20.558594 75.375 17.390625 73.425781 14.609375 C 72.417969 13.167969 70.515625 12.601562 69.320312 11.355469 C 67.246094 9.191406 72.667969 8.378906 73.746094 8.351562 C 78.785156 8.222656 83.875 10.25 88.757812 11.332031 C 92.609375 12.1875 97.945312 13.261719 100.945312 9.886719 C 101.203125 9.59375 101.125 8.058594 100.5625 8.367188 C 96.789062 10.433594 93.167969 10.167969 89.085938 9.3125 C 84.539062 8.355469 80.0625 6.78125 75.429688 6.320312 C 72.570312 6.035156 68.128906 6.355469 67.808594 10.117188 C 67.695312 11.441406 68.355469 12.628906 69.222656 13.542969 C 70.371094 14.746094 74.953125 16.394531 72.59375 18.636719 C 71.464844 19.714844 69.386719 20.085938 67.898438 20.28125 C 66.273438 20.492188 64.601562 20.304688 62.992188 20.078125 C 59.480469 19.582031 56.050781 18.605469 52.535156 18.136719 C 49.472656 17.726562 46.214844 17.851562 43.511719 19.53125 C 40.855469 21.183594 39.308594 24.316406 40.050781 27.457031 C 40.910156 31.074219 44.574219 33.550781 47.738281 34.8125 C 50.046875 35.730469 52.429688 35.9375 54.46875 37.515625 C 55.730469 38.492188 58.601562 41.480469 57.011719 43.007812 C 56.574219 43.433594 56.921875 45.160156 57.585938 44.558594 "/></g><g clip-rule="nonzero" clip-path="url(#05bbc8fd2a)"><path style=" stroke:none;fill-rule:nonzero;fill:#353333;fill-opacity:1;" d="M 60.800781 40.945312 C 63.203125 35.480469 56.226562 33.960938 53.085938 31.519531 C 51.941406 30.632812 49.316406 27.4375 51.082031 26.195312 C 53.003906 24.835938 56.101562 25.257812 58.226562 25.625 C 62.167969 26.304688 66.144531 27.472656 70.167969 27.351562 C 73.199219 27.257812 76.996094 25.757812 78.207031 22.648438 C 78.988281 20.644531 78.027344 18.277344 77.433594 16.371094 C 77.007812 15.007812 76.550781 13.457031 77.804688 12.421875 C 79.300781 11.183594 81.898438 11.375 83.648438 11.648438 C 85.953125 12.003906 88.152344 12.988281 90.382812 13.652344 C 92.589844 14.308594 94.84375 14.433594 97.128906 14.269531 C 100.292969 14.039062 103.480469 13.085938 106.261719 11.519531 C 106.332031 11.480469 106.296875 11.175781 106.226562 11.199219 C 101.601562 12.902344 96.898438 14.277344 91.949219 13.386719 C 87.59375 12.605469 83.71875 10.011719 79.160156 11.144531 C 77.21875 11.625 76.507812 13.0625 76.792969 14.984375 C 77.191406 17.710938 79.261719 20.601562 77.4375 23.222656 C 74.863281 26.925781 69.847656 26.964844 65.9375 26.40625 C 61.660156 25.792969 57.054688 24.035156 52.75 25.066406 C 51.8125 25.289062 50.691406 25.539062 50.328125 26.558594 C 50.003906 27.484375 50.480469 28.554688 50.910156 29.335938 C 52.316406 31.90625 54.449219 32.941406 56.910156 34.203125 C 59.523438 35.542969 62.070312 37.335938 60.679688 40.71875 C 60.640625 40.808594 60.726562 41.113281 60.800781 40.945312 "/></g><path style=" stroke:none;fill-rule:nonzero;fill:#353333;fill-opacity:1;" d="M 36.117188 87.335938 C 31.441406 82.207031 27.75 76.867188 25.367188 70.105469 C 24.132812 66.589844 23.21875 62.90625 22.683594 59.195312 C 22.429688 57.421875 22.289062 55.628906 22.308594 53.832031 C 22.316406 52.847656 22.558594 51.808594 22.597656 50.796875 C 22.261719 51.425781 21.902344 52.042969 21.558594 52.664062 C 21.542969 52.851562 21.527344 53.042969 21.515625 53.230469 C 21.523438 53.253906 21.523438 53.273438 21.53125 53.296875 C 21.578125 53.460938 21.554688 53.597656 21.492188 53.703125 C 21.4375 55.125 21.488281 56.550781 21.597656 57.976562 C 21.914062 61.988281 22.878906 65.96875 24.039062 69.789062 C 26.214844 76.949219 30.011719 84.320312 35.726562 88.902344 C 36.226562 89.304688 36.421875 87.671875 36.117188 87.335938 "/><path style=" stroke:none;fill-rule:nonzero;fill:#353333;fill-opacity:1;" d="M 76.515625 52.203125 C 75.65625 55.324219 75.351562 58.652344 74.753906 61.84375 C 74.117188 65.246094 73.058594 68.386719 71.832031 71.578125 C 70.820312 74.230469 69.816406 76.878906 68.523438 79.390625 C 67.910156 80.578125 67.230469 81.703125 66.386719 82.71875 C 65.554688 83.714844 64.578125 84.570312 63.84375 85.652344 C 63.707031 85.847656 63.484375 86.957031 63.953125 86.917969 C 66 86.742188 67.425781 83.535156 68.335938 81.871094 C 69.765625 79.265625 70.824219 76.410156 71.886719 73.613281 C 73.054688 70.550781 74.199219 67.5625 74.917969 64.332031 C 75.769531 60.507812 76.445312 56.53125 76.910156 52.628906 C 76.949219 52.324219 76.6875 51.566406 76.515625 52.203125 "/><path style=" stroke:none;fill-rule:nonzero;fill:#353333;fill-opacity:1;" d="M 35.855469 88.125 C 36.992188 90.175781 39.234375 90.65625 41.359375 91.050781 C 43.722656 91.492188 46.179688 91.546875 48.578125 91.65625 C 51.496094 91.792969 54.429688 91.550781 57.289062 90.933594 C 59.949219 90.359375 63.132812 89.398438 64.894531 87.15625 C 65.023438 86.996094 65.125 86.046875 64.773438 86.160156 C 63.605469 86.53125 62.597656 87.277344 61.484375 87.800781 C 60.167969 88.425781 58.765625 88.839844 57.359375 89.179688 C 54.660156 89.828125 51.859375 90.007812 49.097656 89.960938 C 44.796875 89.886719 39.796875 89.875 35.957031 87.625 C 35.792969 87.527344 35.8125 88.046875 35.855469 88.125 "/><path style=" stroke:none;fill-rule:nonzero;fill:#353333;fill-opacity:1;" d="M 74.921875 62.585938 C 76.023438 59.203125 80.9375 57.917969 84.003906 58.316406 C 85.757812 58.542969 87.480469 59.035156 88.8125 60.273438 C 90.835938 62.148438 89.589844 65.105469 88.292969 67.007812 C 85.929688 70.476562 81.875 71.9375 78.421875 73.886719 C 75.671875 75.441406 72.265625 78.289062 68.9375 77.980469 C 68.429688 77.933594 68.339844 79.628906 68.867188 79.726562 C 70.679688 80.054688 72.75 78.734375 74.292969 77.941406 C 76.257812 76.933594 78.207031 75.925781 80.199219 74.984375 C 84.695312 72.855469 89.613281 69.738281 90.5 64.273438 C 90.792969 62.453125 90.683594 60.578125 89.597656 59.046875 C 88.433594 57.398438 86.234375 56.8125 84.371094 56.621094 C 80.753906 56.246094 75.5625 58.15625 74.636719 62.121094 C 74.578125 62.371094 74.738281 63.148438 74.921875 62.585938 "/><path style=" stroke:none;fill-rule:nonzero;fill:#353333;fill-opacity:1;" d="M 74.765625 66.042969 C 76.25 65.191406 77.667969 64.363281 79.351562 63.980469 C 80.902344 63.625 84.472656 64.34375 82.226562 66.457031 C 80.894531 67.714844 78.964844 68.390625 77.3125 69.070312 C 75.808594 69.6875 73.953125 70.121094 72.945312 71.523438 C 72.867188 71.632812 72.730469 72.503906 73.011719 72.4375 C 75.097656 71.9375 77.1875 70.851562 79.148438 69.964844 C 81.015625 69.125 83.203125 67.988281 83.605469 65.738281 C 84.582031 60.261719 76.167969 62.710938 74.683594 65.613281 C 74.652344 65.671875 74.617188 66.128906 74.765625 66.042969 "/><path style=" stroke:none;fill-rule:nonzero;fill:#353333;fill-opacity:1;" d="M 68.011719 47.230469 C 61.664062 45.621094 54.359375 45.5625 47.679688 45.484375 C 41.941406 45.414062 36.019531 46.128906 30.542969 47.46875 C 27.277344 48.265625 20.75 50.1875 21.539062 53.507812 C 21.597656 53.757812 21.746094 54.039062 22.074219 54.097656 C 21.496094 53.992188 23.601562 51.472656 23.824219 51.304688 C 24.589844 50.730469 25.53125 50.300781 26.492188 49.941406 C 28.378906 49.238281 30.390625 48.855469 32.386719 48.386719 C 37.503906 47.300781 42.921875 46.804688 48.21875 46.875 C 54.136719 46.953125 60.394531 47.132812 66.121094 48.234375 C 69.820312 48.945312 74.578125 50.257812 75.632812 53.261719 C 75.761719 53.625 76.011719 53.089844 76.027344 52.980469 C 76.464844 49.746094 71.453125 48.101562 68.011719 47.230469 "/><path style=" stroke:none;fill-rule:nonzero;fill:#353333;fill-opacity:1;" d="M 75.753906 51.980469 C 75.316406 54.527344 72.058594 56.140625 69.175781 57.160156 C 65.925781 58.304688 62.398438 58.964844 58.875 59.375 C 55.585938 59.753906 52.300781 59.691406 48.992188 59.691406 C 45.515625 59.6875 42.023438 59.613281 38.582031 59.285156 C 35.765625 59.015625 19.34375 55.300781 22.457031 52.285156 C 22.558594 52.1875 22.566406 51.886719 22.507812 51.703125 C 22.195312 52.09375 21.871094 52.480469 21.5625 52.871094 C 21.542969 52.894531 21.519531 52.914062 21.5 52.933594 C 21.511719 53.039062 21.535156 53.144531 21.578125 53.25 C 21.644531 53.410156 21.570312 53.53125 21.441406 53.609375 C 22.179688 57.042969 33.679688 59.683594 36.660156 60.207031 C 40.234375 60.832031 44.085938 60.875 47.753906 60.878906 C 51.84375 60.886719 55.949219 60.707031 59.996094 60.183594 C 65.738281 59.4375 75.644531 57.441406 75.980469 52.042969 C 75.992188 51.859375 75.796875 51.730469 75.753906 51.980469 "/><path style=" stroke:none;fill-rule:nonzero;fill:#353333;fill-opacity:1;" d="M 25.886719 53.5 C 26.472656 54.183594 27.394531 54.789062 28.050781 55.167969 C 29.097656 55.769531 30.257812 56.21875 31.363281 56.691406 C 33.324219 57.53125 35.503906 58.359375 37.652344 58.339844 C 38.097656 58.335938 38.070312 57.40625 37.757812 57.234375 C 35.441406 55.972656 32.777344 55.347656 30.308594 54.457031 C 29.058594 54.007812 26.816406 52.261719 25.527344 52.992188 C 25.621094 53.164062 25.746094 53.335938 25.886719 53.5 "/><path style=" stroke:none;fill-rule:nonzero;fill:#353333;fill-opacity:1;" d="M 45.753906 58.472656 C 45.734375 58.347656 45.6875 58.238281 45.625 58.183594 C 44.261719 57.007812 42.273438 56.367188 40.386719 55.765625 C 38.378906 55.125 36.339844 54.515625 34.292969 53.941406 C 32.691406 53.488281 31.027344 53.144531 29.398438 52.746094 C 28.566406 52.542969 27.5 52.136719 26.519531 51.933594 C 26.164062 52.105469 25.8125 52.285156 25.457031 52.472656 C 26.136719 53.210938 27.527344 53.601562 28.558594 53.960938 C 30.15625 54.515625 31.855469 54.914062 33.476562 55.425781 C 35.433594 56.046875 37.394531 56.65625 39.347656 57.28125 C 40.257812 57.570312 41.183594 57.929688 42.136719 58.246094 C 43.34375 58.316406 44.546875 58.402344 45.753906 58.472656 "/><path style=" stroke:none;fill-rule:nonzero;fill:#353333;fill-opacity:1;" d="M 50.238281 57.375 C 48.046875 56.160156 45.226562 55.527344 42.726562 54.730469 C 40.609375 54.054688 38.441406 53.449219 36.359375 52.707031 C 34.730469 52.128906 33.113281 51.554688 31.417969 51.085938 C 30.921875 50.949219 30.363281 50.804688 29.796875 50.714844 C 29.121094 50.882812 28.507812 51.082031 27.925781 51.308594 C 30.886719 52.042969 33.511719 53.164062 36.277344 54.234375 C 38.410156 55.0625 40.648438 55.785156 42.859375 56.5 C 45.105469 57.226562 47.574219 58.207031 50.085938 58.246094 C 50.621094 58.257812 50.53125 57.535156 50.238281 57.375 "/><path style=" stroke:none;fill-rule:nonzero;fill:#353333;fill-opacity:1;" d="M 58.136719 57.769531 C 54.160156 55.804688 49.328125 54.699219 44.871094 53.441406 C 40.796875 52.292969 36.507812 50.796875 32.1875 50.214844 C 32.066406 50.238281 31.949219 50.257812 31.832031 50.28125 C 31.78125 50.386719 31.804688 50.550781 31.835938 50.605469 C 32.003906 50.886719 31.945312 50.824219 32.328125 50.984375 C 32.394531 51.015625 32.445312 50.976562 32.476562 50.917969 C 36.351562 52.628906 40.914062 53.730469 45.066406 54.992188 C 49.25 56.265625 53.53125 57.886719 58.011719 58.492188 C 58.433594 58.550781 58.382812 57.890625 58.136719 57.769531 "/><path style=" stroke:none;fill-rule:nonzero;fill:#353333;fill-opacity:1;" d="M 35.347656 50.21875 C 39.078125 50.699219 42.382812 52.109375 45.738281 53.328125 C 48.0625 54.175781 50.554688 54.824219 53.007812 55.441406 C 55.914062 56.167969 58.800781 56.992188 61.832031 57.40625 C 62.222656 57.457031 62.183594 56.84375 61.949219 56.730469 C 57.09375 54.398438 51.042969 53.765625 45.808594 51.988281 C 43.894531 51.339844 42.011719 50.660156 40.023438 50.140625 C 38.660156 49.78125 36.714844 49.261719 35.332031 49.863281 C 35.1875 49.925781 35.148438 50.191406 35.347656 50.21875 "/><path style=" stroke:none;fill-rule:nonzero;fill:#353333;fill-opacity:1;" d="M 66.484375 56.011719 C 63.121094 53.515625 57.578125 52.828125 53.175781 51.808594 C 49.46875 50.949219 45.910156 49.5625 42.136719 48.875 C 41.246094 48.957031 40.359375 49.054688 39.472656 49.15625 C 44.066406 50.117188 48.308594 51.871094 52.84375 52.953125 C 55.167969 53.507812 57.515625 54.003906 59.820312 54.605469 C 62.011719 55.175781 64.089844 55.941406 66.265625 56.539062 C 66.609375 56.636719 66.65625 56.136719 66.484375 56.011719 "/><path style=" stroke:none;fill-rule:nonzero;fill:#353333;fill-opacity:1;" d="M 69.265625 55.871094 C 69.269531 55.578125 69.140625 55.257812 68.929688 55.15625 C 67.039062 54.242188 64.773438 53.652344 62.714844 52.957031 C 60.535156 52.21875 58.320312 51.570312 56.101562 50.902344 C 52.605469 49.847656 49.351562 48.421875 45.464844 48.75 C 45.265625 48.765625 45.238281 49.09375 45.441406 49.109375 C 49.226562 49.433594 52.78125 51.183594 56.148438 52.347656 C 58.1875 53.050781 60.242188 53.734375 62.28125 54.441406 C 64.152344 55.089844 66.070312 55.910156 68.085938 56.320312 C 68.46875 56.160156 68.867188 56.015625 69.265625 55.871094 "/><path style=" stroke:none;fill-rule:nonzero;fill:#353333;fill-opacity:1;" d="M 72.195312 54.328125 C 72.109375 54.230469 71.996094 54.164062 71.855469 54.136719 C 70.019531 53.214844 67.605469 52.707031 65.558594 52.074219 C 63.792969 51.527344 61.988281 51.058594 60.226562 50.5 C 57.847656 49.746094 53.882812 48.097656 51.21875 49.03125 C 50.6875 49.21875 50.894531 50.164062 51.320312 50.054688 C 51.601562 50.070312 51.878906 50.09375 52.15625 50.121094 C 52.21875 50.15625 52.277344 50.195312 52.335938 50.226562 C 52.402344 50.261719 52.453125 50.21875 52.484375 50.15625 C 55.199219 50.5 57.625 51.480469 60.089844 52.394531 C 61.691406 52.984375 63.359375 53.449219 65.003906 53.972656 C 66.582031 54.476562 68.257812 55.214844 69.972656 55.613281 C 70.863281 55.28125 71.6875 54.90625 72.195312 54.328125 "/><path style=" stroke:none;fill-rule:nonzero;fill:#353333;fill-opacity:1;" d="M 72.195312 54.328125 C 72.421875 54.070312 72.585938 53.773438 72.667969 53.421875 C 71.210938 51.375 67.25 50.4375 64.527344 49.8125 C 62.5625 49.363281 60.5 49.101562 58.457031 48.90625 C 54.78125 48.550781 51.0625 48.722656 47.367188 48.585938 C 46.957031 48.570312 46.484375 48.574219 46.222656 48.8125 C 48.242188 49.03125 50.261719 49.25 52.28125 49.46875 C 54.058594 49.660156 55.820312 49.589844 57.574219 49.898438 C 59.648438 50.21875 61.6875 50.605469 63.722656 51.042969 C 65.46875 51.417969 67.171875 51.90625 68.777344 52.535156 C 70.035156 53.027344 71.042969 53.746094 72.195312 54.328125 "/><path style=" stroke:none;fill-rule:nonzero;fill:#353333;fill-opacity:1;" d="M 47.738281 48.871094 C 46.535156 48.855469 45.339844 48.773438 44.148438 48.695312 C 42.222656 48.855469 40.304688 49.046875 38.394531 49.289062 C 38.433594 49.425781 38.535156 49.523438 38.699219 49.507812 C 41.699219 49.183594 44.707031 49.628906 47.710938 49.304688 C 47.953125 49.277344 47.996094 48.875 47.738281 48.871094 "/><path style=" stroke:none;fill-rule:nonzero;fill:#353333;fill-opacity:1;" d="M 40.074219 49.855469 C 42.667969 50.347656 45.273438 50.554688 47.945312 50.691406 C 50.964844 50.84375 54.074219 51.117188 57.101562 51.066406 C 57.390625 51.0625 57.460938 50.601562 57.195312 50.539062 C 54.675781 49.957031 51.859375 49.96875 49.230469 49.882812 C 46.203125 49.785156 43.160156 49.660156 40.175781 49.296875 C 39.878906 49.261719 39.808594 49.804688 40.074219 49.855469 "/><path style=" stroke:none;fill-rule:nonzero;fill:#353333;fill-opacity:1;" d="M 40.867188 50.894531 C 44.28125 51.644531 47.816406 51.902344 51.363281 52.171875 C 55.277344 52.46875 59.207031 52.828125 63.15625 52.847656 C 63.464844 52.851562 63.535156 52.355469 63.257812 52.292969 C 59.839844 51.5625 56.292969 51.300781 52.75 51.046875 C 48.828125 50.765625 44.902344 50.410156 40.953125 50.40625 C 40.6875 50.40625 40.628906 50.84375 40.867188 50.894531 "/><path style=" stroke:none;fill-rule:nonzero;fill:#353333;fill-opacity:1;" d="M 47.15625 52.683594 C 50.367188 53.132812 53.527344 53.367188 56.792969 53.539062 C 58.40625 53.625 60.015625 53.683594 61.625 53.808594 C 63.164062 53.925781 64.730469 54.238281 66.285156 54.175781 C 66.675781 54.160156 66.695312 53.636719 66.40625 53.519531 C 63.867188 52.503906 60.296875 52.613281 57.46875 52.5 C 54.054688 52.359375 50.585938 52.480469 47.1875 52.238281 C 46.921875 52.21875 46.902344 52.648438 47.15625 52.683594 "/><path style=" stroke:none;fill-rule:nonzero;fill:#353333;fill-opacity:1;" d="M 51.019531 53.980469 C 53.535156 54.363281 55.9375 54.839844 58.496094 55.09375 C 59.855469 55.230469 61.234375 55.289062 62.609375 55.332031 C 63.769531 55.371094 65.019531 55.480469 66.109375 55.117188 C 66.421875 55.011719 66.523438 54.46875 66.15625 54.371094 C 65.214844 54.125 64.25 54.21875 63.257812 54.210938 C 61.886719 54.207031 60.519531 54.132812 59.160156 54.046875 C 56.457031 53.878906 53.734375 53.832031 51.042969 53.65625 C 50.84375 53.640625 50.835938 53.953125 51.019531 53.980469 "/><path style=" stroke:none;fill-rule:nonzero;fill:#353333;fill-opacity:1;" d="M 54.753906 54.789062 C 57.734375 55.824219 61.96875 56.003906 65.207031 55.5 C 65.484375 55.457031 65.523438 54.953125 65.246094 54.902344 C 63.722656 54.628906 62.132812 54.640625 60.566406 54.605469 C 58.648438 54.566406 56.742188 54.417969 54.820312 54.417969 C 54.601562 54.421875 54.582031 54.730469 54.753906 54.789062 "/><path style=" stroke:none;fill-rule:nonzero;fill:#353333;fill-opacity:1;" d="M 77.660156 82.507812 C 78.664062 82.816406 79.601562 83.035156 80.464844 83.675781 C 81.640625 84.550781 81.941406 86.175781 82.089844 87.632812 C 82.105469 87.746094 82.433594 88.265625 82.46875 87.972656 C 82.792969 85.085938 80.578125 81.460938 77.535156 82.09375 C 77.371094 82.128906 77.566406 82.480469 77.660156 82.507812 "/><path style=" stroke:none;fill-rule:nonzero;fill:#353333;fill-opacity:1;" d="M 4.394531 82.9375 C 4.101562 83.261719 3.875 83.664062 3.75 84.105469 C 3.34375 85.5 3.273438 86.695312 3.933594 88.042969 C 4.773438 89.753906 6.355469 91.078125 7.835938 92.183594 C 11.941406 95.261719 17.019531 97.273438 21.953125 98.378906 C 27.242188 99.5625 32.742188 99.945312 38.097656 100.75 C 43.238281 101.523438 48.59375 102.023438 53.753906 101.171875 C 53.855469 101.152344 53.871094 100.917969 53.761719 100.921875 C 44.351562 101.359375 35.039062 99.742188 25.746094 98.414062 C 20.835938 97.714844 16.226562 96.25 11.816406 93.929688 C 9.75 92.839844 7.757812 91.601562 6.046875 89.976562 C 5.191406 89.164062 3.972656 87.824219 3.671875 86.582031 C 3.429688 85.578125 3.914062 83.269531 4.71875 82.632812 C 4.605469 82.722656 4.496094 82.824219 4.394531 82.9375 "/><g clip-rule="nonzero" clip-path="url(#29db60db28)"><path style=" stroke:none;fill-rule:nonzero;fill:#353333;fill-opacity:1;" d="M 97.125 84.609375 C 95.097656 81.597656 91.714844 79.945312 88.585938 78.773438 C 86.816406 78.109375 85.085938 77.625 83.257812 77.195312 C 81.25 76.71875 79.015625 76.28125 77.25 77.441406 C 80.625 77.871094 84.027344 78.539062 87.273438 79.648438 C 90.132812 80.625 99.160156 84.824219 95.117188 89.382812 C 92.296875 92.558594 88.023438 94.078125 84.277344 95.289062 C 83.855469 95.429688 83.429688 95.5625 83.003906 95.695312 C 79.296875 96.875 75.519531 97.683594 71.644531 98.28125 C 68.503906 98.769531 65.371094 99.351562 62.210938 99.710938 C 59.21875 100.050781 56.175781 100.144531 53.269531 100.933594 C 53.234375 100.941406 53.234375 101.058594 53.269531 101.054688 C 56.617188 100.613281 59.988281 100.398438 63.339844 100.015625 C 67.105469 99.585938 70.894531 98.894531 74.621094 98.25 C 78.394531 97.59375 82.058594 96.539062 85.640625 95.285156 C 88.40625 94.320312 98.117188 90.769531 97.226562 86.816406 C 97.289062 86.945312 97.351562 87.074219 97.402344 87.210938 C 97.988281 88.707031 96.660156 90.179688 95.59375 91.179688 C 93.332031 93.308594 89.957031 94.65625 87.015625 95.824219 C 83.144531 97.367188 79.167969 98.648438 75.066406 99.582031 C 65.75 101.699219 55.898438 101.960938 46.339844 101.769531 C 36.746094 101.574219 26.988281 100.546875 17.789062 97.996094 C 13.492188 96.804688 9.386719 95.109375 6.042969 92.34375 C 3.515625 90.253906 1.109375 87.15625 3.347656 84.1875 C 4.597656 82.527344 6.457031 81.804688 8.207031 81.011719 C 9.925781 80.226562 11.4375 79.261719 13.277344 78.675781 C 17.730469 77.261719 22.277344 76.910156 26.871094 76.445312 C 27.035156 76.425781 27.230469 76.390625 27.304688 76.226562 C 27.707031 75.363281 22.402344 75.699219 21.878906 75.742188 C 19.695312 75.929688 17.519531 76.265625 15.382812 76.808594 C 11.183594 77.875 7.058594 79.75 3.792969 82.910156 C -0.894531 87.433594 3.9375 93.0625 8.246094 95.949219 C 11.8125 98.335938 16.128906 99.695312 20.34375 100.824219 C 24.96875 102.066406 29.722656 102.839844 34.507812 103.367188 C 44.121094 104.425781 53.929688 104.453125 63.5625 103.558594 C 70.246094 102.9375 76.804688 101.59375 83.046875 99.320312 C 87.316406 97.765625 91.660156 95.898438 95.082031 93.066406 C 97.828125 90.789062 99.199219 87.695312 97.125 84.609375 "/></g><path style=" stroke:none;fill-rule:nonzero;fill:#353333;fill-opacity:1;" d="M 23.859375 85.164062 C 24.035156 85.078125 23.90625 84.464844 23.738281 84.527344 C 23.007812 84.808594 22.277344 85.085938 21.917969 85.773438 C 21.589844 86.410156 21.566406 87.609375 22.28125 88.046875 C 22.480469 88.167969 22.488281 87.683594 22.484375 87.625 C 22.4375 87.179688 22.375 86.773438 22.582031 86.355469 C 22.839844 85.839844 23.320312 85.425781 23.859375 85.164062 "/><path style=" stroke:none;fill-rule:nonzero;fill:#353333;fill-opacity:1;" d="M 67.035156 89.277344 C 67.453125 89.546875 67.78125 89.925781 67.96875 90.375 C 67.480469 90.164062 67.203125 89.757812 67.035156 89.277344 Z M 28.046875 88.148438 C 29.351562 90.304688 32.410156 91.476562 34.796875 92.335938 C 35.054688 92.429688 35.320312 92.515625 35.582031 92.601562 C 34.117188 92.363281 32.65625 92.089844 31.21875 91.710938 C 28.851562 91.082031 26.007812 90.058594 25.078125 87.792969 C 24.898438 87.355469 24.539062 87.773438 24.597656 88.074219 C 25.019531 90.367188 27.347656 91.550781 29.542969 92.339844 C 32.332031 93.347656 35.363281 93.773438 38.304688 94.234375 C 42.550781 94.902344 46.648438 95.546875 50.984375 95.46875 C 52.167969 95.445312 53.382812 95.382812 54.605469 95.269531 C 55.035156 95.261719 55.46875 95.25 55.898438 95.230469 C 59.554688 95.066406 63.558594 94.632812 66.734375 92.867188 C 66.914062 92.765625 66.976562 92.414062 66.886719 92.175781 C 69.050781 91.703125 71.261719 90.835938 72.820312 89.402344 C 74.457031 87.894531 74.128906 85.457031 71.511719 85.175781 C 71.183594 85.140625 71.179688 86.09375 71.402344 86.222656 C 71.972656 86.550781 73.597656 87.035156 73 87.769531 C 72.917969 87.871094 72.824219 87.96875 72.726562 88.0625 C 72.394531 87.082031 71.574219 86.269531 70.621094 85.722656 C 70.519531 85.664062 70.480469 85.9375 70.566406 85.992188 C 71.445312 86.558594 72.109375 87.355469 72.523438 88.25 C 72.277344 88.460938 72.007812 88.648438 71.726562 88.824219 C 71.707031 88.695312 71.679688 88.574219 71.65625 88.484375 C 71.480469 87.84375 70.914062 87.304688 70.390625 86.878906 C 70.007812 86.5625 69.207031 85.851562 68.644531 85.933594 C 68.195312 86 68.242188 86.429688 68.34375 86.785156 C 68.125 86.75 67.890625 86.757812 67.632812 86.808594 C 67.582031 86.820312 67.578125 86.96875 67.636719 86.964844 C 67.9375 86.953125 68.210938 87.023438 68.464844 87.144531 C 68.46875 87.152344 68.472656 87.164062 68.476562 87.171875 C 68.492188 87.214844 68.515625 87.203125 68.53125 87.179688 C 68.910156 87.375 69.238281 87.671875 69.519531 87.953125 C 69.910156 88.34375 70.234375 88.988281 70.777344 89.210938 C 70.894531 89.257812 70.890625 89.03125 70.867188 88.980469 C 70.539062 88.363281 69.957031 87.808594 69.421875 87.332031 C 69.132812 87.078125 68.835938 86.902344 68.511719 86.820312 C 68.496094 86.542969 68.539062 86.207031 68.882812 86.410156 C 69.011719 86.488281 69.144531 86.566406 69.269531 86.648438 C 69.652344 86.890625 70.015625 87.164062 70.351562 87.453125 C 70.683594 87.738281 70.980469 88.058594 71.207031 88.417969 C 71.34375 88.632812 71.378906 88.832031 71.378906 89.035156 C 71.179688 89.152344 70.976562 89.265625 70.785156 89.375 C 70.003906 89.816406 69.199219 90.25 68.378906 90.660156 C 68.238281 89.84375 67.683594 89.058594 66.917969 88.703125 C 66.859375 88.21875 66.859375 87.601562 67.175781 87.632812 C 68.449219 87.769531 68.65625 88.9375 68.914062 89.835938 C 68.945312 89.945312 69.042969 89.898438 69.058594 89.8125 C 69.257812 88.613281 68.417969 87.265625 66.972656 87.347656 C 66.925781 87.347656 66.902344 87.402344 66.894531 87.441406 C 66.824219 87.863281 66.800781 88.277344 66.839844 88.667969 C 66.378906 88.476562 65.847656 88.441406 65.28125 88.644531 C 65.214844 88.667969 65.203125 88.875 65.289062 88.867188 C 65.890625 88.808594 66.46875 88.945312 66.941406 89.222656 C 67.109375 89.824219 67.453125 90.371094 68.027344 90.835938 C 67.699219 90.996094 67.375 91.152344 67.046875 91.304688 C 66.742188 90.945312 66.3125 90.636719 65.941406 90.390625 C 65.339844 89.992188 64.582031 89.710938 63.867188 90.015625 C 63.824219 90.035156 63.824219 90.144531 63.878906 90.128906 C 64.605469 89.96875 65.308594 90.378906 65.867188 90.753906 C 66.167969 90.957031 66.4375 91.199219 66.695312 91.445312 C 66.699219 91.449219 66.703125 91.453125 66.707031 91.457031 C 66.519531 91.542969 66.332031 91.632812 66.144531 91.714844 C 66.085938 91.738281 66.046875 91.847656 66.035156 91.960938 C 62.6875 92.066406 59.34375 92.898438 55.992188 93.082031 C 52.203125 93.289062 48.378906 93.019531 44.632812 92.484375 C 41.628906 92.058594 38.578125 91.46875 35.640625 90.75 C 34.28125 90.417969 32.953125 90.085938 31.652344 89.597656 C 30.359375 89.113281 29.367188 88.425781 28.222656 87.734375 C 28.019531 87.609375 27.992188 88.0625 28.046875 88.148438 "/><path style=" stroke:none;fill-rule:nonzero;fill:#353333;fill-opacity:1;" d="M 73.710938 85.246094 C 74.578125 85.882812 74.984375 85.878906 74.925781 87.0625 C 74.875 88.058594 74.421875 89.125 73.824219 89.859375 C 73.578125 90.160156 72.515625 91.433594 72.152344 91.46875 C 72.664062 91.703125 73.210938 91.261719 73.621094 90.851562 C 74.953125 89.527344 75.789062 88.878906 75.757812 86.730469 C 75.746094 85.867188 75.058594 84.007812 73.730469 84.832031 C 73.613281 84.902344 73.601562 85.167969 73.710938 85.246094 "/><path style=" stroke:none;fill-rule:nonzero;fill:#353333;fill-opacity:1;" d="M 77.167969 86.554688 C 77.738281 87.773438 76.925781 90.691406 75.601562 90.964844 C 75.476562 91.085938 75.578125 91.339844 75.738281 91.390625 C 75.898438 91.441406 76.066406 91.359375 76.210938 91.265625 C 78.597656 89.664062 78.578125 86.332031 76.476562 84.5 C 76.308594 84.355469 76.261719 84.957031 76.332031 85.058594 C 76.65625 85.539062 76.929688 86.035156 77.167969 86.554688 "/><path style=" stroke:none;fill-rule:nonzero;fill:#353333;fill-opacity:1;" d="M 79.988281 88.074219 C 79.949219 88.183594 80.066406 88.871094 80.285156 88.660156 C 81.070312 87.890625 80.804688 86.847656 80.453125 86.035156 C 80.035156 85.058594 79.148438 84.550781 78.199219 84.09375 C 78.105469 84.046875 78.152344 84.339844 78.191406 84.375 C 79.175781 85.28125 80.507812 86.632812 79.988281 88.074219 "/><path style=" stroke:none;fill-rule:nonzero;fill:#353333;fill-opacity:1;" d="M 84.398438 87.171875 C 86.613281 86.417969 83.054688 82.671875 81.902344 82.5625 C 81.785156 82.554688 81.796875 82.832031 81.867188 82.875 C 83.289062 83.804688 84.71875 85.144531 84.398438 87.171875 "/><path style=" stroke:none;fill-rule:nonzero;fill:#353333;fill-opacity:1;" d="M 15.328125 87.839844 C 15.539062 86.691406 16.539062 85.933594 17.246094 85.03125 C 17.324219 84.929688 17.316406 84.363281 17.082031 84.414062 C 15.640625 84.726562 14.992188 86.476562 15.058594 87.664062 C 15.066406 87.8125 15.269531 88.164062 15.328125 87.839844 "/><path style=" stroke:none;fill-rule:nonzero;fill:#353333;fill-opacity:1;" d="M 17.117188 87.898438 C 17.289062 86.640625 18.46875 86.015625 19.253906 85.09375 C 19.378906 84.949219 19.335938 84.441406 19.078125 84.425781 C 18.285156 84.382812 17.691406 85.085938 17.339844 85.648438 C 16.945312 86.292969 16.800781 86.988281 16.828125 87.71875 C 16.835938 87.878906 17.070312 88.238281 17.117188 87.898438 "/><path style=" stroke:none;fill-rule:nonzero;fill:#353333;fill-opacity:1;" d="M 19.214844 88.867188 C 19.257812 87.542969 20.40625 86.660156 20.882812 85.5 C 20.945312 85.351562 20.921875 84.925781 20.675781 84.910156 C 19.886719 84.855469 19.425781 85.910156 19.171875 86.449219 C 18.792969 87.242188 18.757812 88.0625 18.949219 88.894531 C 19.003906 89.128906 19.207031 89.097656 19.214844 88.867188 "/><path style=" stroke:none;fill-rule:nonzero;fill:#353333;fill-opacity:1;" d="M 25.648438 86.566406 C 25.164062 88.007812 25.804688 89.84375 27.753906 89.683594 C 27.933594 89.855469 28.167969 89.964844 28.472656 89.957031 C 28.601562 89.953125 28.578125 89.699219 28.507812 89.644531 C 27.804688 89.097656 27.425781 88.59375 27.570312 87.710938 C 27.699219 86.933594 28.296875 86.121094 29.199219 86 C 29.324219 85.984375 29.332031 85.652344 29.214844 85.660156 C 28.019531 85.71875 27.441406 86.746094 27.273438 87.703125 C 27.203125 88.125 27.234375 88.816406 27.492188 89.320312 C 26.121094 88.820312 25.394531 88.027344 25.96875 86.539062 C 26.328125 85.59375 27.378906 84.378906 28.628906 84.6875 C 28.691406 84.703125 28.6875 84.53125 28.648438 84.503906 C 27.253906 83.570312 25.980469 85.59375 25.648438 86.566406 "/><path style=" stroke:none;fill-rule:nonzero;fill:#353333;fill-opacity:1;" d="M 23.472656 78.25 C 20.355469 78.40625 17.355469 79.003906 14.328125 79.625 C 12.375 80.027344 10.382812 80.882812 9.003906 82.292969 C 8.976562 82.320312 8.988281 82.445312 9.027344 82.40625 C 10.507812 80.980469 13.078125 80.324219 15.070312 79.925781 C 17.871094 79.367188 20.691406 79.191406 23.457031 78.523438 C 23.542969 78.503906 23.558594 78.242188 23.472656 78.25 "/><path style=" stroke:none;fill-rule:nonzero;fill:#353333;fill-opacity:1;" d="M 17.199219 81.90625 C 17.15625 81.964844 17.175781 82.242188 17.253906 82.15625 C 19.402344 79.753906 23.339844 79.921875 26.308594 79.066406 C 26.367188 79.046875 26.375 78.84375 26.304688 78.839844 C 23.476562 78.675781 18.882812 79.671875 17.199219 81.90625 "/><path style=" stroke:none;fill-rule:nonzero;fill:#353333;fill-opacity:1;" d="M 20.597656 81.988281 C 22.5625 80.289062 25.285156 80.683594 27.59375 79.785156 C 27.667969 79.753906 27.6875 79.480469 27.589844 79.472656 C 25.328125 79.34375 22.097656 80.144531 20.527344 81.664062 C 20.457031 81.734375 20.476562 82.089844 20.597656 81.988281 "/><path style=" stroke:none;fill-rule:nonzero;fill:#353333;fill-opacity:1;" d="M 23.425781 83.414062 C 24.816406 82.703125 26.25 82.34375 27.738281 81.855469 C 27.804688 81.835938 27.8125 81.601562 27.734375 81.605469 C 26.214844 81.695312 24.613281 82.339844 23.402344 83.15625 C 23.339844 83.199219 23.34375 83.457031 23.425781 83.414062 "/><path style=" stroke:none;fill-rule:nonzero;fill:#353333;fill-opacity:1;" d="M 60.160156 63.777344 C 64.175781 63.828125 69.515625 62.753906 72.414062 59.667969 C 72.472656 59.605469 72.46875 59.21875 72.367188 59.285156 C 68.585938 61.738281 64.585938 62.941406 60.167969 63.574219 C 60.113281 63.585938 60.109375 63.777344 60.160156 63.777344 "/><path style=" stroke:none;fill-rule:nonzero;fill:#353333;fill-opacity:1;" d="M 62.90625 65.914062 C 65.578125 65.515625 69.316406 64.851562 71.316406 62.851562 C 71.394531 62.773438 71.441406 62.269531 71.28125 62.347656 C 69.878906 63.023438 68.515625 63.609375 67.011719 64.039062 C 65.609375 64.441406 64.171875 64.691406 62.902344 65.453125 C 62.8125 65.507812 62.785156 65.933594 62.90625 65.914062 "/><path style=" stroke:none;fill-rule:nonzero;fill:#353333;fill-opacity:1;" d="M 62.320312 68.277344 C 64.757812 69.027344 68.597656 67.726562 70.457031 66.035156 C 70.546875 65.957031 70.636719 65.378906 70.453125 65.40625 C 69.234375 65.605469 68.109375 66.242188 66.953125 66.65625 C 65.453125 67.195312 63.914062 67.375 62.347656 67.554688 C 62.132812 67.578125 62.121094 68.21875 62.320312 68.277344 "/><path style=" stroke:none;fill-rule:nonzero;fill:#353333;fill-opacity:1;" d="M 60.828125 70.84375 C 63.28125 70.585938 67.125 71.210938 68.753906 68.804688 C 68.808594 68.730469 68.835938 68.203125 68.691406 68.308594 C 66.402344 69.96875 63.488281 69.722656 60.851562 70.25 C 60.675781 70.285156 60.671875 70.863281 60.828125 70.84375 "/><path style=" stroke:none;fill-rule:nonzero;fill:#353333;fill-opacity:1;" d="M 60.433594 73.207031 C 61.277344 73.785156 62.359375 73.625 63.296875 73.429688 C 64.429688 73.191406 65.839844 72.898438 66.753906 72.148438 C 66.859375 72.0625 66.945312 71.554688 66.746094 71.542969 C 65.75 71.476562 64.621094 72.089844 63.675781 72.34375 C 62.632812 72.628906 61.550781 72.84375 60.46875 72.832031 C 60.355469 72.832031 60.359375 73.160156 60.433594 73.207031 "/><path style=" stroke:none;fill-rule:nonzero;fill:#353333;fill-opacity:1;" d="M 61.660156 75.144531 C 63.351562 75.484375 65.816406 75.289062 67.113281 73.964844 C 67.191406 73.886719 67.253906 73.363281 67.070312 73.378906 C 66.277344 73.457031 65.488281 73.929688 64.726562 74.167969 C 63.757812 74.472656 62.695312 74.71875 61.675781 74.707031 C 61.550781 74.707031 61.535156 75.117188 61.660156 75.144531 "/><path style=" stroke:none;fill-rule:nonzero;fill:#353333;fill-opacity:1;" d="M 61.265625 77.433594 C 62.328125 78.378906 64.238281 77.496094 64.949219 76.507812 C 65 76.433594 65.054688 75.941406 64.886719 76.027344 C 64.351562 76.296875 63.78125 76.535156 63.21875 76.734375 C 62.738281 76.90625 61.8125 77.242188 61.34375 76.921875 C 61.207031 76.828125 61.160156 77.335938 61.265625 77.433594 "/><path style=" stroke:none;fill-rule:nonzero;fill:#353333;fill-opacity:1;" d="M 61.160156 79.597656 C 61.988281 79.738281 63.074219 79.550781 63.691406 78.9375 C 63.777344 78.855469 63.816406 78.445312 63.65625 78.421875 C 63.308594 78.371094 62.957031 78.546875 62.628906 78.648438 C 62.148438 78.792969 61.695312 78.886719 61.191406 78.832031 C 60.972656 78.808594 60.929688 79.558594 61.160156 79.597656 "/><path style=" stroke:none;fill-rule:nonzero;fill:#353333;fill-opacity:1;" d="M 60.605469 81.417969 C 61.5 81.410156 62.523438 81.199219 63.15625 80.503906 C 63.238281 80.414062 63.28125 79.917969 63.082031 79.976562 C 62.246094 80.226562 61.535156 80.582031 60.636719 80.578125 C 60.378906 80.578125 60.359375 81.421875 60.605469 81.417969 "/><path style=" stroke:none;fill-rule:nonzero;fill:#353333;fill-opacity:1;" d="M 31.210938 74.445312 C 30.839844 74.226562 30.480469 74.019531 30.152344 73.730469 C 30.019531 73.617188 29.972656 73.914062 30.023438 74 C 30.421875 74.675781 31.183594 74.992188 31.867188 75.300781 C 32.691406 75.671875 33.539062 75.984375 34.371094 76.339844 C 34.558594 76.417969 34.5625 76.007812 34.453125 75.921875 C 33.785156 75.390625 33.023438 75.085938 32.246094 74.769531 C 31.523438 74.476562 30.835938 73.910156 30.101562 73.707031 C 30.089844 73.820312 30.078125 73.933594 30.0625 74.046875 C 30.433594 74.246094 30.796875 74.460938 31.171875 74.65625 C 31.253906 74.703125 31.28125 74.484375 31.210938 74.445312 "/><path style=" stroke:none;fill-rule:nonzero;fill:#353333;fill-opacity:1;" d="M 28.710938 71.550781 C 29.839844 72.285156 31.144531 72.628906 32.371094 73.148438 C 32.464844 73.1875 32.488281 72.964844 32.414062 72.925781 C 31.210938 72.332031 29.894531 72.042969 28.753906 71.308594 C 28.671875 71.25 28.632812 71.5 28.710938 71.550781 "/><path style=" stroke:none;fill-rule:nonzero;fill:#353333;fill-opacity:1;" d="M 27.546875 68.945312 C 29 69.984375 30.773438 70.359375 32.265625 71.324219 C 32.347656 71.375 32.375 71.148438 32.308594 71.097656 C 30.875 70.046875 29.046875 69.773438 27.585938 68.75 C 27.519531 68.707031 27.488281 68.902344 27.546875 68.945312 "/><path style=" stroke:none;fill-rule:nonzero;fill:#353333;fill-opacity:1;" d="M 26.359375 66.652344 C 28.027344 67.476562 29.769531 68.238281 31.535156 68.8125 C 31.667969 68.855469 31.683594 68.566406 31.59375 68.507812 C 30 67.511719 28.148438 67.015625 26.417969 66.335938 C 26.285156 66.285156 26.253906 66.601562 26.359375 66.652344 "/><path style=" stroke:none;fill-rule:nonzero;fill:#353333;fill-opacity:1;" d="M 24.992188 63.8125 C 26.898438 64.816406 28.773438 65.929688 30.78125 66.710938 C 30.90625 66.757812 30.933594 66.464844 30.839844 66.414062 C 28.933594 65.398438 26.972656 64.5 25.042969 63.535156 C 24.9375 63.480469 24.898438 63.761719 24.992188 63.8125 "/><path style=" stroke:none;fill-rule:nonzero;fill:#353333;fill-opacity:1;" d="M 25.332031 61.820312 C 27.320312 62.796875 29.5625 63.582031 31.332031 64.960938 C 31.457031 65.058594 31.488281 64.691406 31.425781 64.617188 C 29.929688 62.820312 27.4375 62.339844 25.398438 61.476562 C 25.257812 61.414062 25.21875 61.765625 25.332031 61.820312 "/><path style=" stroke:none;fill-rule:nonzero;fill:#353333;fill-opacity:1;" d="M 70.839844 54.328125 C 69.976562 54.148438 69.332031 54.304688 68.523438 54.59375 C 67.007812 55.136719 65.335938 55.164062 63.703125 55.25 C 61.820312 55.351562 59.933594 55.390625 58.046875 55.425781 C 56.277344 55.460938 54.519531 55.316406 52.832031 55.808594 C 52.363281 55.949219 52.34375 56.625 52.769531 56.789062 C 54.207031 57.335938 55.699219 57.304688 57.296875 57.300781 C 59.1875 57.292969 61.074219 57.1875 62.960938 57.0625 C 64.472656 56.964844 65.964844 56.855469 67.417969 56.488281 C 68.8125 56.132812 69.492188 55.136719 70.8125 54.742188 C 70.980469 54.691406 71.035156 54.371094 70.839844 54.328125 "/><path style=" stroke:none;fill-rule:nonzero;fill:#353333;fill-opacity:1;" d="M 49.824219 57.371094 C 50.09375 59.472656 56.640625 58.5 58.230469 58.320312 C 61.390625 57.964844 66.25 57.671875 68.464844 55.6875 C 68.636719 55.535156 68.613281 54.953125 68.199219 55.066406 C 67.082031 55.367188 65.761719 55.519531 64.601562 55.742188 C 62.699219 56.109375 60.796875 56.457031 58.863281 56.722656 C 56.96875 56.980469 55.023438 57.183594 53.101562 57.261719 C 52.222656 57.296875 50.8125 57.484375 49.984375 57.207031 C 49.863281 57.164062 49.816406 57.3125 49.824219 57.371094 "/><path style=" stroke:none;fill-rule:nonzero;fill:#353333;fill-opacity:1;" d="M 70.734375 75.964844 C 70.648438 76.167969 70.609375 76.246094 70.640625 76.457031 C 70.648438 76.519531 70.667969 76.632812 70.753906 76.609375 C 72.460938 76.117188 74.191406 75.644531 75.882812 75.09375 C 77.882812 74.441406 79.757812 73.167969 81.515625 72.019531 C 83.757812 70.546875 85.761719 68.878906 87.367188 66.683594 C 88.375 65.308594 89.421875 63.429688 89.25 61.632812 C 89.066406 59.746094 87.550781 58.253906 85.664062 58.253906 C 85.546875 58.253906 85.542969 58.582031 85.628906 58.628906 C 87.578125 59.746094 89.511719 60.4375 88.707031 63.238281 C 88.160156 65.125 86.769531 66.777344 85.449219 68.152344 C 83.585938 70.089844 81.210938 71.539062 78.917969 72.871094 C 77.582031 73.644531 76.25 74.265625 74.777344 74.707031 C 74.269531 74.859375 70.886719 75.496094 70.820312 76.085938 C 70.824219 76.046875 70.78125 75.847656 70.734375 75.964844 "/><path style=" stroke:none;fill-rule:nonzero;fill:#353333;fill-opacity:1;" d="M 74.875 64.078125 C 75.335938 62.097656 78.078125 61.785156 79.6875 61.898438 C 80.628906 61.960938 81.558594 62.25 82.347656 62.78125 C 83.878906 63.804688 83.390625 65.425781 82.757812 66.863281 C 82.738281 66.90625 82.753906 67.167969 82.820312 67.074219 C 86.742188 61.730469 75.96875 59.078125 74.816406 63.996094 C 74.808594 64.046875 74.851562 64.179688 74.875 64.078125 "/><path style=" stroke:none;fill-rule:nonzero;fill:#353333;fill-opacity:1;" d="M 70.855469 77.886719 C 71.597656 76.902344 72.738281 76.4375 73.640625 75.644531 C 73.675781 75.613281 73.671875 75.429688 73.613281 75.464844 C 72.589844 76.074219 71.457031 76.617188 70.785156 77.660156 C 70.75 77.71875 70.785156 77.980469 70.855469 77.886719 "/><path style=" stroke:none;fill-rule:nonzero;fill:#353333;fill-opacity:1;" d="M 72.703125 77.488281 C 73.269531 76.925781 73.96875 76.5 74.453125 75.851562 C 74.476562 75.820312 74.46875 75.671875 74.421875 75.71875 C 73.886719 76.300781 73.214844 76.714844 72.652344 77.261719 C 72.59375 77.316406 72.625 77.566406 72.703125 77.488281 "/></g></svg>